<svg width="80" height="80" viewBox="0 0 80 80" fill="none" xmlns="http://www.w3.org/2000/svg">
<path d="M58.9941 40.8349C58.9941 35.1752 54.4062 30.5874 48.7465 30.5874C47.8439 30.5874 46.9454 30.7065 46.074 30.9416C42.319 31.7392 39.3316 34.585 37.0101 37.726C35.5106 39.7549 34.0034 41.6151 31.3857 42.1103C28.9671 42.5681 25.6653 41.1744 25.4373 38.4405C25.3504 37.3957 25.6562 36.1205 26.2437 35.2445C27.1965 33.8231 28.9652 35.1436 30.2223 35.2847C31.1274 35.3859 32.1189 35.4298 32.9972 35.1434C34.7534 34.5712 35.1154 33.1667 34.1141 31.7336C33.1286 30.3229 31.4684 29.4857 29.7473 29.4915C28.7623 29.4949 27.2949 29.8616 26.5737 30.5936C27.1478 29.3959 26.3344 27.793 25.8679 27.1268C24.9393 25.8003 22.5287 24.648 21.3589 26.3484C20.5433 27.5339 21.2772 29.8598 21.9796 30.9383C22.3672 31.5335 22.9248 32.0938 23.0821 32.8086C23.2539 33.5886 22.8736 34.286 22.6037 34.9969C22.3232 35.7356 22.0415 36.4954 21.9149 37.2748C21 42.9023 22.5547 47.672 26.5386 51.1007C27.5858 52.0019 28.7821 52.8047 30.0127 53.4353C31.5137 54.204 33.2384 54.8182 34.891 55.1614C36.5459 55.505 38.3352 55.7475 40.0284 55.7475C47.9007 55.7475 54.6408 51.8263 57.4359 46.265C58.422 44.6903 58.9941 42.8299 58.9941 40.8349Z" fill="white"/>
<path d="M51.5409 28.3866C49.9342 27.5179 48.1483 27.4511 46.3983 27.8654C44.6382 28.2827 42.7885 29.6107 40.9491 29.4667C39.0768 29.3198 38.8019 27.2849 39.6821 25.9767C41.6126 23.1086 46.216 23.7486 48.6181 25.4538C49.2256 25.8851 49.7855 26.3798 50.2882 26.9297C50.673 27.3502 51.0335 28.1124 51.5409 28.3866Z" fill="white"/>
</svg>
